<?xml version="1.0" encoding="UTF-8"?>
<svg width="32px" height="22px" viewBox="0 0 32 22" version="1.1" xmlns="http://www.w3.org/2000/svg" xmlns:xlink="http://www.w3.org/1999/xlink">
    <!-- Generator: Sketch 62 (91390) - https://sketch.com -->
    <title>Icon_Spread_Normal</title>
    <desc>Created with Sketch.</desc>
    <g id="Icon_Spread_Normal" stroke="none" stroke-width="1" fill="none" fill-rule="evenodd">
        <g id="编组-8备份" fill="#1F2C3D">
            <path d="M2,0 L30,0 C31.1045695,-2.02906125e-16 32,0.8954305 32,2 L32,20 C32,21.1045695 31.1045695,22 30,22 L2,22 C0.8954305,22 1.3527075e-16,21.1045695 0,20 L0,2 C-1.3527075e-16,0.8954305 0.8954305,2.02906125e-16 2,0 Z" id="矩形"></path>
        </g>
        <path d="M12.8535534,17.5814755 C12.6582912,17.7767376 12.3417088,17.7767376 12.1464466,17.5814755 C11.9511845,17.3862133 11.9511845,17.0696308 12.1464466,16.8743687 L18.1568542,10.863961 L12.1464466,4.85355339 C11.9511845,4.65829124 11.9511845,4.34170876 12.1464466,4.14644661 C12.3417088,3.95118446 12.6582912,3.95118446 12.8535534,4.14644661 L19.2175144,10.5104076 C19.4127766,10.7056698 19.4127766,11.0222523 19.2175144,11.2175144 L12.8535534,17.5814755 Z" id="路径" fill="#96A3B3"></path>
    </g>
</svg>