<?xml version="1.0" encoding="UTF-8"?>
<svg width="32px" height="22px" viewBox="0 0 32 22" version="1.1" xmlns="http://www.w3.org/2000/svg" xmlns:xlink="http://www.w3.org/1999/xlink">
    <!-- Generator: Sketch 62 (91390) - https://sketch.com -->
    <title>Icon_Refresh_Disable</title>
    <desc>Created with Sketch.</desc>
    <g id="Icon_Refresh_Disable" stroke="none" stroke-width="1" fill="none" fill-rule="evenodd">
        <g id="编组-23">
            <path d="M2,0 L30,0 C31.1045695,-2.02906125e-16 32,0.8954305 32,2 L32,20 C32,21.1045695 31.1045695,22 30,22 L2,22 C0.8954305,22 1.3527075e-16,21.1045695 0,20 L0,2 C-1.3527075e-16,0.8954305 0.8954305,2.02906125e-16 2,0 Z" id="矩形" fill="#1F2C3D" opacity="0.5"></path>
            <path d="M10.8729282,9.16036039 L12.9944751,11.2453709 C13.1712707,11.4121718 13.1712707,11.662373 12.9944751,11.8291739 C12.9944751,11.9125743 12.9060773,11.9125743 12.7292818,11.9125743 C12.640884,11.9125743 12.4640884,11.8291739 12.3756906,11.8291739 L10.8539802,10.3228257 C10.4037898,11.9091277 10.8707912,13.661967 12.1104972,14.831589 C13.6132597,16.3327966 16,16.6663983 17.9447514,15.6655933 C18.121547,15.5821928 18.3867403,15.6655933 18.5635359,15.8323941 C18.6519337,15.9991949 18.5635359,16.2493962 18.3867403,16.4161971 C17.4143646,16.8331992 16.5303867,17 15.558011,17 C14.0552486,17 12.5524862,16.4161971 11.4917127,15.415392 C10.1926383,14.1897579 9.6006347,12.4638002 9.86002059,10.7821592 L8.75138122,11.8291739 C8.57458564,11.9959747 8.30939227,11.9959747 8.13259669,11.8291739 C7.9558011,11.662373 7.9558011,11.4121718 8.13259669,11.2453709 L10.2541436,9.16036039 C10.4309392,8.99355954 10.6961326,8.99355954 10.8729282,9.16036039 Z M20.5966851,7.6591528 C21.9048347,8.8933491 22.4362513,10.6348838 22.1909349,12.3276223 L23.2486188,11.3287713 C23.4254144,11.1619705 23.6906077,11.1619705 23.8674033,11.3287713 C24.0441989,11.4955722 24.0441989,11.7457735 23.8674033,11.9125743 L21.7458564,13.9141844 C21.5690608,13.9141844 21.480663,13.9975848 21.3922652,13.9975848 C21.3038674,13.9975848 21.1270718,13.9141844 21.038674,13.9141844 L18.9171271,11.9125743 C18.7403315,11.7457735 18.7403315,11.4955722 18.9171271,11.3287713 C19.0939227,11.1619705 19.359116,11.1619705 19.5359116,11.3287713 L21.1431685,12.8451213 C21.5981702,11.2561896 21.1318149,9.49843698 19.8895028,8.32635617 C18.3867403,6.90854901 16,6.4915469 14.0552486,7.49235196 C13.878453,7.57575238 13.6132597,7.49235196 13.4364641,7.32555111 C13.4364641,6.99194943 13.5248619,6.74174816 13.7016575,6.65834774 C15.9116022,5.49074184 18.7403315,5.90774395 20.5966851,7.6591528 Z" id="形状结合" fill="#AFBCCC" fill-rule="nonzero" opacity="0.200000003"></path>
        </g>
    </g>
</svg>