<?xml version="1.0" encoding="UTF-8"?>
<svg width="32px" height="22px" viewBox="0 0 32 22" version="1.1" xmlns="http://www.w3.org/2000/svg" xmlns:xlink="http://www.w3.org/1999/xlink">
    <!-- Generator: Sketch 62 (91390) - https://sketch.com -->
    <title>Icon_Hide_Disable</title>
    <desc>Created with Sketch.</desc>
    <g id="Icon_Hide_Disable" stroke="none" stroke-width="1" fill="none" fill-rule="evenodd">
        <path d="M2,0 L30,0 C31.1045695,-2.02906125e-16 32,0.8954305 32,2 L32,20 C32,21.1045695 31.1045695,22 30,22 L2,22 C0.8954305,22 1.3527075e-16,21.1045695 0,20 L0,2 C-1.3527075e-16,0.8954305 0.8954305,2.02906125e-16 2,0 Z" id="矩形" fill="#1F2C3D" opacity="0.5"></path>
        <path d="M18.5104076,4.14644661 C18.7056698,3.95118446 19.0222523,3.95118446 19.2175144,4.14644661 C19.4127766,4.34170876 19.4127766,4.65829124 19.2175144,4.85355339 L13.2071068,10.863961 L19.2175144,16.8743687 C19.4127766,17.0696308 19.4127766,17.3862133 19.2175144,17.5814755 C19.0222523,17.7767376 18.7056698,17.7767376 18.5104076,17.5814755 L12.1464466,11.2175144 C11.9511845,11.0222523 11.9511845,10.7056698 12.1464466,10.5104076 L18.5104076,4.14644661 Z" id="路径" fill="#96A3B3" opacity="0.200000003"></path>
    </g>
</svg>